<svg version="1" xmlns="http://www.w3.org/2000/svg" width="421.333" height="421.333" viewBox="0 0 316.000000 316.000000"><path d="M150.5.8c-32.3 3.1-61.3 25.5-70.9 54.8-2.7 8.2-2.8 9.1-3.1 25.9-.3 13.4-.1 16.3 1.2 17.7 1.9 2.2 2.7 2.2 4.6.4 1.1-1.1 1.4-4.9 1.5-16.3.1-21.6 3.9-34.1 14.3-47.4 5.5-7 5.5-6.9 13.4-12.9 10.5-7.9 19.4-11.8 33-14.4 6.7-1.3 22.8-1.4 29-.1 27.2 5.5 48.6 23 56.7 46.5 2.8 8.1 3.1 11 3.2 27.8.1 13.8.3 15.5 2 16.7 1.4 1 2.4 1.1 3.8.4 1.7-.9 1.9-2.3 1.8-17.4-.1-12.5-.6-18.3-2.1-24-7.1-28.4-32.4-50.8-64.1-56.5C168.7.9 156 .2 150.5.8z"/><path d="M150.1 23.6c-9.5 2.5-17.2 8.9-21.3 17.9-3.4 7.5-3.2 20.1.5 27.2 3 5.9 3.1 6.3 1.6 6.3-1.8 0-12.3 7.7-16.5 12.2-9 9.3-13.1 19.4-13.2 31.8 0 9.9 1.8 25 4.5 36.5.3 1.6.8 3.9 1 5 .7 3.4.8 13.8.2 19-.9 7.2.8 11.7 9 23.7 7.8 11.5 9.1 14.7 8.1 19.3-.9 4-.4 13.3.9 18.3.7 2.2 2.9 6.3 5.1 9.1 7.1 9 11 15.9 13.6 24.3 4.2 13.3 5.6 16.7 8.5 20.8 1.6 2.2 3 5.7 3.4 8.6.3 2.7.8 6.4 1.1 8.3.6 4.3 1 4.8 3.2 3.5 5.7-3.6 10.8-14.8 11.6-25.2.5-7.1 1.9-9.9 8.7-18.4 7.1-8.8 8.1-11.5 8.4-23.4.3-11.1 1-13.1 6.6-19.1 6.9-7.5 8.7-11 8.2-16.1-.2-2.6-.8-6.3-1.3-8.2-2.1-7.4-1.3-11.8 4.4-23.9 5-10.8 9.5-24.9 11.1-34.9 1.9-12.1.3-27-4.1-38.4-1.9-4.8-3.4-9.2-3.4-9.8 0-3.1-6.5-16.2-9.6-19.4-3.7-3.8-10.2-7.6-13-7.6-1.1 0-1.4-.5-.9-1.8 2.3-5.5 3.2-10.5 3-16.4-.7-19.9-20-34.2-39.4-29.2zm33.4 45.5c1.3 3.9-3.4 5.9-5.7 2.5-1.1-1.6-1-2.3.7-4 1.9-1.8 4.2-1.1 5 1.5zm-43.4 0c1.5 2.8-.9 5.4-4 4.4-2.3-.7-2.8-3.4-.9-5.3 1.8-1.8 3.6-1.5 4.9.9zm11 1.2c1 1.4-.1 4.5-1.8 5.1-3.2 1.3-5.7-3.6-3.2-6.1 1.2-1.2 3.9-.6 5 1zm10.9.7c.9 1.8.4 2.6-2.6 4.3-.6.4-1.9-.1-2.7-1.1-1.5-1.6-1.5-2-.2-4 1.7-2.3 4-2 5.5.8zm10.3-.9c1.4 2.2.2 4.9-2.2 4.9-2.6 0-4.2-2.9-2.9-5.3 1.1-2.1 3.6-1.9 5.1.4zm-7.9 23.2c1.8 2 6.9 5.4 11.4 7.6 7.5 3.8 8.1 4.3 9.8 8.8 1.2 3.1 4 6.9 8 10.8 3.4 3.4 6.3 7.2 6.6 8.7.6 3 .2 14.9-.6 19.1-1.4 7.7-5.7 18.9-9 23.4-.1.1-.2-3.3-.2-7.7-.2-15.8-7-22.4-20.6-19.7-2.6.5-4.6 1.9-6.4 4.2-1.5 1.9-3.1 3.5-3.6 3.5-.6 0-2.8-1.5-4.9-3.4-8.1-7.4-16-5.5-21.6 5-1.8 3.4-3.9 8.6-4.6 11.5l-1.4 5.4-2.5-5c-4.6-9-6.3-17.2-6.2-30.1 0-7.4.3-8.5 2.8-11.5 1.5-1.9 4.4-4.5 6.3-5.9 2.4-1.7 4.3-4.3 5.7-8 2.1-5.2 2.5-5.6 10.2-9.5 10.9-5.5 12.9-7 15-11.3 1.6-3.2 1.9-3.4 2.2-1.5.2 1.2 1.8 3.7 3.6 5.6z"/><path d="M133 124.2c0 2.3 6.6 6.8 10 6.8 3.3 0 8.9-3 10.2-5.4.8-1.6.3-1.4-2.1.9-4.5 4.2-10.7 4.2-15 .1-1.7-1.7-3.1-2.7-3.1-2.4zM165.6 125.4c.8 2 6.3 5.4 9.5 6 1.3.2 3.3-.1 4.4-.7 2.5-1.2 6.5-4.8 6.5-5.8 0-.4-1.4.6-3.1 2.2-4.6 4.3-8.5 4.2-14.1-.2-2.1-1.6-3.5-2.3-3.2-1.5zM80.3 102.1c-2 .7-2.8 2.4-2.5 5 .1.3-1.2.6-2.9.7-5.9.2-12.5 3.9-15.1 8.5-1.4 2.4-2.1 30.9-1 35.1C60.6 157.6 68 163 75 163c2.4 0 2.9.5 3.2 2.7.3 2.8.4 2.8 7.9 3.1 6.2.2 8-.1 9.9-1.6l2.3-1.8v-29.8c0-28.6 0-29.8-2-31.7-2.2-2.3-11.9-3.3-16-1.8zM222.8 103.6c-1.7.9-2.8 2.3-2.9 3.7 0 1.2-.1 14.7-.1 30-.1 32.9-.5 31.7 10.3 32.2 7.2.3 11-1.3 10.3-4.2-.4-1.4.2-1.8 2.8-2 5.2-.4 10.1-3.1 12.8-7 2.4-3.5 2.5-4.2 2.5-20.8 0-16.3-.1-17.2-2.3-20-3.2-4-5.7-5.6-11.1-6.9-3.2-.9-4.7-1.8-5-3.2-.2-1-.8-2.2-1.5-2.6-2-1.3-13-.8-15.8.8z"/></svg>