<?xml version="1.0" encoding="utf-8"?>
<!-- Generator: Adobe Illustrator 16.0.0, SVG Export Plug-In . SVG Version: 6.00 Build 0)  -->
<!DOCTYPE svg PUBLIC "-//W3C//DTD SVG 1.1//EN" "http://www.w3.org/Graphics/SVG/1.1/DTD/svg11.dtd">
<svg version="1.1" id="Layer_1" xmlns="http://www.w3.org/2000/svg" xmlns:xlink="http://www.w3.org/1999/xlink" x="0px" y="0px"
	 width="405.96px" height="410.631px" viewBox="0 0 405.96 410.631" enable-background="new 0 0 405.96 410.631"
	 xml:space="preserve">
<g id="Capa_1_copy">
	<g>
		<path fill="#181921" d="M285.685,5.316c-12.631,0-22.863,13.553-22.863,30.28v339.44c0,16.727,10.232,30.277,22.863,30.277
			c12.629,0,22.863-13.554,22.863-30.277V35.596C308.548,18.869,298.314,5.316,285.685,5.316z"/>
		<path fill="#181921" d="M120.279,5.316c-12.633,0-22.865,13.553-22.865,30.28v339.44c0,16.727,10.232,30.277,22.865,30.277
			c12.629,0,22.861-13.554,22.861-30.277V35.596C143.14,18.869,132.902,5.316,120.279,5.316z"/>
	</g>
	
		<rect id="square" x="0.15" y="0.15" display="none" fill="none" stroke="#000000" stroke-width="0.3" width="405.66" height="410.333"/>
</g>
</svg>
