<?xml version="1.0" encoding="utf-8"?>
<!-- Generator: Adobe Illustrator 16.0.0, SVG Export Plug-In . SVG Version: 6.00 Build 0)  -->
<!DOCTYPE svg PUBLIC "-//W3C//DTD SVG 1.1//EN" "http://www.w3.org/Graphics/SVG/1.1/DTD/svg11.dtd">
<svg version="1.1" id="Capa_1_copy" xmlns="http://www.w3.org/2000/svg" xmlns:xlink="http://www.w3.org/1999/xlink" x="0px"
	 y="0px" width="405.96px" height="410.631px" viewBox="277.02 74.685 405.96 410.631"
	 enable-background="new 277.02 74.685 405.96 410.631" xml:space="preserve">
<g>
	<path fill="#289FAA" d="M562.704,80.001c-12.63,0-22.863,13.553-22.863,30.28v339.44c0,16.726,10.233,30.278,22.863,30.278
		s22.863-13.553,22.863-30.278v-339.44C585.567,93.554,575.334,80.001,562.704,80.001z"/>
	<path fill="#289FAA" d="M397.298,80.001c-12.632,0-22.865,13.553-22.865,30.28v339.44c0,16.726,10.233,30.278,22.865,30.278
		c12.629,0,22.862-13.553,22.862-30.278v-339.44C420.16,93.554,409.922,80.001,397.298,80.001z"/>
</g>
<rect id="square" x="277.17" y="74.835" display="none" fill="none" stroke="#000000" stroke-width="0.3" width="405.66" height="410.331"/>
</svg>
