<?xml version="1.0" encoding="utf-8"?>
<!-- Generator: Adobe Illustrator 16.0.0, SVG Export Plug-In . SVG Version: 6.00 Build 0)  -->
<!DOCTYPE svg PUBLIC "-//W3C//DTD SVG 1.1//EN" "http://www.w3.org/Graphics/SVG/1.1/DTD/svg11.dtd">
<svg version="1.1" id="Layer_1" xmlns="http://www.w3.org/2000/svg" xmlns:xlink="http://www.w3.org/1999/xlink" x="0px" y="0px"
	 width="405.961px" height="410.631px" viewBox="0 0 405.961 410.631" enable-background="new 0 0 405.961 410.631"
	 xml:space="preserve">
<g id="img_white">
	<g>
		<g>
			<g>
				<g>
					<path id="aO9mmp1J_8_" fill="#FFFFFF" d="M100.354,2.504l0.301,0.03l0.289,0.03l0.291,0.04l0.579,0.1l0.28,0.07l0.29,0.069
						l0.28,0.08l0.289,0.08l0.271,0.101l0.28,0.1l0.279,0.11l0.271,0.109l0.26,0.131l0.271,0.13l0.26,0.14l0.26,0.15l0.25,0.149
						l0.25,0.16l295.292,191.78l0.229,0.147l0.439,0.32l0.221,0.17l0.209,0.18l0.211,0.17l0.199,0.19l0.201,0.188l0.188,0.19
						l0.189,0.2l0.188,0.2l0.185,0.21l0.17,0.21l0.17,0.22l0.16,0.22l0.155,0.22l0.15,0.23l0.149,0.23l0.142,0.237l0.129,0.23
						l0.131,0.25l0.129,0.239l0.111,0.25l0.119,0.25l0.1,0.25l0.104,0.261l0.18,0.52l0.08,0.263l0.07,0.27l0.065,0.27l0.063,0.271
						l0.051,0.27l0.049,0.271l0.041,0.28l0.029,0.27l0.03,0.28l0.021,0.28l0.01,0.277v0.563l-0.01,0.278l-0.021,0.279l-0.03,0.28
						l-0.029,0.27l-0.041,0.28l-0.049,0.271l-0.051,0.27l-0.063,0.271l-0.065,0.271l-0.07,0.271l-0.08,0.262l-0.18,0.521
						l-0.104,0.261l-0.1,0.25l-0.119,0.25l-0.111,0.25l-0.129,0.239l-0.131,0.25l-0.129,0.229l-0.142,0.238l-0.149,0.229
						l-0.15,0.229l-0.155,0.221l-0.16,0.22l-0.17,0.22l-0.17,0.211l-0.185,0.209l-0.188,0.2l-0.189,0.2l-0.188,0.189l-0.201,0.188
						l-0.199,0.19l-0.211,0.17l-0.209,0.18l-0.221,0.17l-0.439,0.32l-0.229,0.146L105.604,406.384l-0.26,0.16l-0.141,0.08
						l-0.129,0.08l-0.141,0.07l-0.141,0.066l-0.129,0.08l-0.141,0.07l-0.14,0.06l-0.14,0.07l-0.141,0.06l-0.14,0.07l-0.15,0.063
						l-0.14,0.06l-0.15,0.05l-0.14,0.063l-0.149,0.05l-0.141,0.05l-0.15,0.05l-0.15,0.04l-0.149,0.05l-0.149,0.04l-0.301,0.08
						l-0.16,0.04l-0.149,0.03l-0.149,0.03l-0.16,0.026l-0.15,0.03l-0.16,0.021l-0.16,0.026l-0.16,0.021l-0.16,0.01l-0.16,0.021
						l-0.159,0.013l-0.16,0.01l-0.16,0.01l-0.17,0.011h-0.729l-0.131-0.011l-0.14-0.01l-0.13-0.01l-0.28-0.021l-0.13-0.01
						l-0.141-0.021l-0.139-0.021l-0.141-0.021l-0.13-0.021l-0.14-0.021l-0.141-0.021l-0.14-0.03l-0.13-0.027l-0.141-0.021
						l-0.14-0.03l-0.14-0.038l-0.131-0.028l-0.14-0.04l-0.13-0.03l-0.141-0.04l-0.129-0.04l-0.141-0.05l-0.13-0.04l-0.13-0.05
						l-0.131-0.04l-0.129-0.05l-0.26-0.104l-0.121-0.06l-0.129-0.052l-0.121-0.062l-0.129-0.06l-0.121-0.063l-0.119-0.06
						l-0.11-0.063l-0.12-0.066l-0.26-0.15l-0.26-0.16l-0.5-0.34l-0.24-0.17l-0.24-0.188l-0.23-0.188l-0.22-0.19l-0.22-0.196
						l-0.22-0.212l-0.21-0.21l-0.2-0.212l-0.19-0.22l-0.19-0.229l-0.19-0.23l-0.18-0.229l-0.17-0.24l-0.16-0.24l-0.16-0.25l-0.3-0.5
						l-0.14-0.26l-0.13-0.26l-0.13-0.271l-0.11-0.27l-0.12-0.271l-0.1-0.27l-0.1-0.28l-0.09-0.28l-0.08-0.279l-0.07-0.277
						l-0.07-0.29l-0.06-0.28l-0.05-0.29l-0.05-0.29l-0.03-0.3L88.65,398l-0.02-0.3l-0.02-0.29V13.254l0.02-0.29l0.02-0.3l0.03-0.29
						l0.03-0.3l0.1-0.58l0.06-0.28l0.07-0.29l0.07-0.279l0.08-0.28l0.09-0.28l0.1-0.279l0.1-0.271l0.12-0.27l0.11-0.271l0.13-0.27
						l0.13-0.261l0.14-0.26l0.3-0.5l0.16-0.25l0.16-0.24l0.17-0.239l0.18-0.23l0.38-0.46l0.19-0.22l0.2-0.21l0.21-0.21l0.22-0.21
						l0.22-0.2l0.22-0.19l0.23-0.189l0.24-0.19l0.24-0.17l0.5-0.34l0.26-0.16l0.26-0.15l0.27-0.14l0.261-0.14l0.28-0.13l0.27-0.12
						l0.561-0.221l0.279-0.09l0.29-0.09l0.28-0.08l0.29-0.069l0.579-0.12l0.291-0.04l0.3-0.04l0.58-0.061l0.3-0.01l0.29-0.01h0.29
						l0.3,0.01L100.354,2.504z M374.624,205.334l-263.94-171.48v342.96L374.624,205.334z"/>
				</g>
				<g>
					<g>
						<path id="aO9mmp1J_4_" fill="#FFFFFF" fill-opacity="0" d="M100.354,2.504l0.301,0.03l0.289,0.03l0.291,0.04l0.579,0.1
							l0.28,0.07l0.29,0.069l0.28,0.08l0.289,0.08l0.271,0.101l0.28,0.1l0.279,0.11l0.271,0.109l0.26,0.131l0.271,0.13l0.26,0.14
							l0.26,0.15l0.25,0.149l0.25,0.16l295.292,191.78l0.229,0.147l0.439,0.32l0.221,0.17l0.209,0.18l0.211,0.17l0.199,0.19
							l0.201,0.188l0.188,0.19l0.189,0.2l0.188,0.2l0.185,0.21l0.17,0.21l0.17,0.22l0.16,0.22l0.155,0.22l0.15,0.23l0.149,0.23
							l0.142,0.237l0.129,0.23l0.131,0.25l0.129,0.239l0.111,0.25l0.119,0.25l0.1,0.25l0.104,0.261l0.18,0.52l0.08,0.263l0.07,0.27
							l0.065,0.27l0.063,0.271l0.051,0.27l0.049,0.271l0.041,0.28l0.029,0.27l0.03,0.28l0.021,0.28l0.01,0.277v0.563l-0.01,0.278
							l-0.021,0.279l-0.03,0.28l-0.029,0.27l-0.041,0.28l-0.049,0.271l-0.051,0.27l-0.063,0.271l-0.065,0.271l-0.07,0.271
							l-0.08,0.262l-0.18,0.521l-0.104,0.261l-0.1,0.25l-0.119,0.25l-0.111,0.25l-0.129,0.239l-0.131,0.25l-0.129,0.229
							l-0.142,0.238l-0.149,0.229l-0.15,0.229l-0.155,0.221l-0.16,0.22l-0.17,0.22l-0.17,0.211l-0.185,0.209l-0.188,0.2l-0.189,0.2
							l-0.188,0.189l-0.201,0.188l-0.199,0.19l-0.211,0.17l-0.209,0.18l-0.221,0.17l-0.439,0.32l-0.229,0.146L105.604,406.384
							l-0.26,0.16l-0.141,0.08l-0.129,0.08l-0.141,0.07l-0.141,0.066l-0.129,0.08l-0.141,0.07l-0.14,0.06l-0.14,0.07l-0.141,0.06
							l-0.14,0.07l-0.15,0.063l-0.14,0.06l-0.15,0.05l-0.14,0.063l-0.149,0.05l-0.141,0.05l-0.15,0.05l-0.15,0.04l-0.149,0.05
							l-0.149,0.04l-0.301,0.08l-0.16,0.04l-0.149,0.03l-0.149,0.03l-0.16,0.026l-0.15,0.03l-0.16,0.021l-0.16,0.026l-0.16,0.021
							l-0.16,0.01l-0.16,0.021l-0.159,0.013l-0.16,0.01l-0.16,0.01l-0.17,0.011h-0.729l-0.131-0.011l-0.14-0.01l-0.13-0.01
							l-0.28-0.021l-0.13-0.01l-0.141-0.021l-0.139-0.021l-0.141-0.021l-0.13-0.021l-0.14-0.021l-0.141-0.021l-0.14-0.03
							l-0.13-0.027l-0.141-0.021l-0.14-0.03l-0.14-0.038l-0.131-0.028l-0.14-0.04l-0.13-0.03l-0.141-0.04l-0.129-0.04l-0.141-0.05
							l-0.13-0.04l-0.13-0.05l-0.131-0.04l-0.129-0.05l-0.26-0.104l-0.121-0.06l-0.129-0.052l-0.121-0.062l-0.129-0.06l-0.121-0.063
							l-0.119-0.06l-0.11-0.063l-0.12-0.066l-0.26-0.15l-0.26-0.16l-0.5-0.34l-0.24-0.17l-0.24-0.188l-0.23-0.188l-0.22-0.19
							l-0.22-0.196l-0.22-0.212l-0.21-0.21l-0.2-0.212l-0.19-0.22l-0.19-0.229l-0.19-0.23l-0.18-0.229l-0.17-0.24l-0.16-0.24
							l-0.16-0.25l-0.3-0.5l-0.14-0.26l-0.13-0.26l-0.13-0.271l-0.11-0.27l-0.12-0.271l-0.1-0.27l-0.1-0.28l-0.09-0.28l-0.08-0.279
							l-0.07-0.277l-0.07-0.29l-0.06-0.28l-0.05-0.29l-0.05-0.29l-0.03-0.3L88.65,398l-0.02-0.3l-0.02-0.29V13.254l0.02-0.29
							l0.02-0.3l0.03-0.29l0.03-0.3l0.1-0.58l0.06-0.28l0.07-0.29l0.07-0.279l0.08-0.28l0.09-0.28l0.1-0.279l0.1-0.271l0.12-0.27
							l0.11-0.271l0.13-0.27l0.13-0.261l0.14-0.26l0.3-0.5l0.16-0.25l0.16-0.24l0.17-0.239l0.18-0.23l0.38-0.46l0.19-0.22l0.2-0.21
							l0.21-0.21l0.22-0.21l0.22-0.2l0.22-0.19l0.23-0.189l0.24-0.19l0.24-0.17l0.5-0.34l0.26-0.16l0.26-0.15l0.27-0.14l0.261-0.14
							l0.28-0.13l0.27-0.12l0.561-0.221l0.279-0.09l0.29-0.09l0.28-0.08l0.29-0.069l0.579-0.12l0.291-0.04l0.3-0.04l0.58-0.061
							l0.3-0.01l0.29-0.01h0.29l0.3,0.01L100.354,2.504z M374.624,205.334l-263.94-171.48v342.96L374.624,205.334z"/>
					</g>
				</g>
			</g>
			<g>
				<g>
					<path id="dnrjQHK2H_5_" fill="#FFFFFF" d="M100.354,2.504l0.301,0.03l0.289,0.03l0.291,0.04l0.579,0.1l0.28,0.07l0.29,0.069
						l0.28,0.08l0.289,0.08l0.271,0.101l0.28,0.1l0.279,0.11l0.271,0.109l0.26,0.131l0.271,0.13l0.26,0.14l0.26,0.15l0.25,0.149
						l0.25,0.16l295.292,191.78l0.229,0.147l0.439,0.32l0.221,0.17l0.209,0.18l0.211,0.17l0.199,0.19l0.201,0.188l0.188,0.19
						l0.189,0.2l0.188,0.2l0.185,0.21l0.17,0.21l0.17,0.22l0.16,0.22l0.155,0.22l0.15,0.23l0.149,0.23l0.142,0.237l0.129,0.23
						l0.131,0.25l0.129,0.239l0.111,0.25l0.119,0.25l0.1,0.25l0.104,0.261l0.18,0.52l0.08,0.263l0.07,0.27l0.065,0.27l0.063,0.271
						l0.051,0.27l0.049,0.271l0.041,0.28l0.029,0.27l0.03,0.28l0.021,0.28l0.01,0.277v0.563l-0.01,0.278l-0.021,0.279l-0.03,0.28
						l-0.029,0.27l-0.041,0.28l-0.049,0.271l-0.051,0.27l-0.063,0.271l-0.065,0.271l-0.07,0.271l-0.08,0.262l-0.18,0.521
						l-0.104,0.261l-0.1,0.25l-0.119,0.25l-0.111,0.25l-0.129,0.239l-0.131,0.25l-0.129,0.229l-0.142,0.238l-0.149,0.229
						l-0.15,0.229l-0.155,0.221l-0.16,0.22l-0.17,0.22l-0.17,0.211l-0.185,0.209l-0.188,0.2l-0.189,0.2l-0.188,0.189l-0.201,0.188
						l-0.199,0.19l-0.211,0.17l-0.209,0.18l-0.221,0.17l-0.439,0.32l-0.229,0.146L105.604,406.384l-0.26,0.16l-0.141,0.08
						l-0.129,0.08l-0.141,0.07l-0.141,0.066l-0.129,0.08l-0.141,0.07l-0.14,0.06l-0.14,0.07l-0.141,0.06l-0.14,0.07l-0.15,0.063
						l-0.14,0.06l-0.15,0.05l-0.14,0.063l-0.149,0.05l-0.141,0.05l-0.15,0.05l-0.15,0.04l-0.149,0.05l-0.149,0.04l-0.301,0.08
						l-0.16,0.04l-0.149,0.03l-0.149,0.03l-0.16,0.026l-0.15,0.03l-0.16,0.021l-0.16,0.026l-0.16,0.021l-0.16,0.01l-0.16,0.021
						l-0.159,0.013l-0.16,0.01l-0.16,0.01l-0.17,0.011h-0.729l-0.131-0.011l-0.14-0.01l-0.13-0.01l-0.28-0.021l-0.13-0.01
						l-0.141-0.021l-0.139-0.021l-0.141-0.021l-0.13-0.021l-0.14-0.021l-0.141-0.021l-0.14-0.03l-0.13-0.027l-0.141-0.021
						l-0.14-0.03l-0.14-0.038l-0.131-0.028l-0.14-0.04l-0.13-0.03l-0.141-0.04l-0.129-0.04l-0.141-0.05l-0.13-0.04l-0.13-0.05
						l-0.131-0.04l-0.129-0.05l-0.26-0.104l-0.121-0.06l-0.129-0.052l-0.121-0.062l-0.129-0.06l-0.121-0.063l-0.119-0.06
						l-0.11-0.063l-0.12-0.066l-0.26-0.15l-0.26-0.16l-0.5-0.34l-0.24-0.17l-0.24-0.188l-0.23-0.188l-0.22-0.19l-0.22-0.196
						l-0.22-0.212l-0.21-0.21l-0.2-0.212l-0.19-0.22l-0.19-0.229l-0.19-0.23l-0.18-0.229l-0.17-0.24l-0.16-0.24l-0.16-0.25l-0.3-0.5
						l-0.14-0.26l-0.13-0.26l-0.13-0.271l-0.11-0.27l-0.12-0.271l-0.1-0.27l-0.1-0.28l-0.09-0.28l-0.08-0.279l-0.07-0.277
						l-0.07-0.29l-0.06-0.28l-0.05-0.29l-0.05-0.29l-0.03-0.3L88.65,398l-0.02-0.3l-0.02-0.29V13.254l0.02-0.29l0.02-0.3l0.03-0.29
						l0.03-0.3l0.1-0.58l0.06-0.28l0.07-0.29l0.07-0.279l0.08-0.28l0.09-0.28l0.1-0.279l0.1-0.271l0.12-0.27l0.11-0.271l0.13-0.27
						l0.13-0.261l0.14-0.26l0.3-0.5l0.16-0.25l0.16-0.24l0.17-0.239l0.18-0.23l0.38-0.46l0.19-0.22l0.2-0.21l0.21-0.21l0.22-0.21
						l0.22-0.2l0.22-0.19l0.23-0.189l0.24-0.19l0.24-0.17l0.5-0.34l0.26-0.16l0.26-0.15l0.27-0.14l0.261-0.14l0.28-0.13l0.27-0.12
						l0.561-0.221l0.279-0.09l0.29-0.09l0.28-0.08l0.29-0.069l0.579-0.12l0.291-0.04l0.3-0.04l0.58-0.061l0.3-0.01l0.29-0.01h0.29
						l0.3,0.01L100.354,2.504z M374.624,205.334l-263.94-171.48v342.96L374.624,205.334z"/>
				</g>
				<g>
					<g>
						<path id="dnrjQHK2H_2_" fill="#FFFFFF" fill-opacity="0" d="M100.354,2.504l0.301,0.03l0.289,0.03l0.291,0.04l0.579,0.1
							l0.28,0.07l0.29,0.069l0.28,0.08l0.289,0.08l0.271,0.101l0.28,0.1l0.279,0.11l0.271,0.109l0.26,0.131l0.271,0.13l0.26,0.14
							l0.26,0.15l0.25,0.149l0.25,0.16l295.292,191.78l0.229,0.147l0.439,0.32l0.221,0.17l0.209,0.18l0.211,0.17l0.199,0.19
							l0.201,0.188l0.188,0.19l0.189,0.2l0.188,0.2l0.185,0.21l0.17,0.21l0.17,0.22l0.16,0.22l0.155,0.22l0.15,0.23l0.149,0.23
							l0.142,0.237l0.129,0.23l0.131,0.25l0.129,0.239l0.111,0.25l0.119,0.25l0.1,0.25l0.104,0.261l0.18,0.52l0.08,0.263l0.07,0.27
							l0.065,0.27l0.063,0.271l0.051,0.27l0.049,0.271l0.041,0.28l0.029,0.27l0.03,0.28l0.021,0.28l0.01,0.277v0.563l-0.01,0.278
							l-0.021,0.279l-0.03,0.28l-0.029,0.27l-0.041,0.28l-0.049,0.271l-0.051,0.27l-0.063,0.271l-0.065,0.271l-0.07,0.271
							l-0.08,0.262l-0.18,0.521l-0.104,0.261l-0.1,0.25l-0.119,0.25l-0.111,0.25l-0.129,0.239l-0.131,0.25l-0.129,0.229
							l-0.142,0.238l-0.149,0.229l-0.15,0.229l-0.155,0.221l-0.16,0.22l-0.17,0.22l-0.17,0.211l-0.185,0.209l-0.188,0.2l-0.189,0.2
							l-0.188,0.189l-0.201,0.188l-0.199,0.19l-0.211,0.17l-0.209,0.18l-0.221,0.17l-0.439,0.32l-0.229,0.146L105.604,406.384
							l-0.26,0.16l-0.141,0.08l-0.129,0.08l-0.141,0.07l-0.141,0.066l-0.129,0.08l-0.141,0.07l-0.14,0.06l-0.14,0.07l-0.141,0.06
							l-0.14,0.07l-0.15,0.063l-0.14,0.06l-0.15,0.05l-0.14,0.063l-0.149,0.05l-0.141,0.05l-0.15,0.05l-0.15,0.04l-0.149,0.05
							l-0.149,0.04l-0.301,0.08l-0.16,0.04l-0.149,0.03l-0.149,0.03l-0.16,0.026l-0.15,0.03l-0.16,0.021l-0.16,0.026l-0.16,0.021
							l-0.16,0.01l-0.16,0.021l-0.159,0.013l-0.16,0.01l-0.16,0.01l-0.17,0.011h-0.729l-0.131-0.011l-0.14-0.01l-0.13-0.01
							l-0.28-0.021l-0.13-0.01l-0.141-0.021l-0.139-0.021l-0.141-0.021l-0.13-0.021l-0.14-0.021l-0.141-0.021l-0.14-0.03
							l-0.13-0.027l-0.141-0.021l-0.14-0.03l-0.14-0.038l-0.131-0.028l-0.14-0.04l-0.13-0.03l-0.141-0.04l-0.129-0.04l-0.141-0.05
							l-0.13-0.04l-0.13-0.05l-0.131-0.04l-0.129-0.05l-0.26-0.104l-0.121-0.06l-0.129-0.052l-0.121-0.062l-0.129-0.06l-0.121-0.063
							l-0.119-0.06l-0.11-0.063l-0.12-0.066l-0.26-0.15l-0.26-0.16l-0.5-0.34l-0.24-0.17l-0.24-0.188l-0.23-0.188l-0.22-0.19
							l-0.22-0.196l-0.22-0.212l-0.21-0.21l-0.2-0.212l-0.19-0.22l-0.19-0.229l-0.19-0.23l-0.18-0.229l-0.17-0.24l-0.16-0.24
							l-0.16-0.25l-0.3-0.5l-0.14-0.26l-0.13-0.26l-0.13-0.271l-0.11-0.27l-0.12-0.271l-0.1-0.27l-0.1-0.28l-0.09-0.28l-0.08-0.279
							l-0.07-0.277l-0.07-0.29l-0.06-0.28l-0.05-0.29l-0.05-0.29l-0.03-0.3L88.65,398l-0.02-0.3l-0.02-0.29V13.254l0.02-0.29
							l0.02-0.3l0.03-0.29l0.03-0.3l0.1-0.58l0.06-0.28l0.07-0.29l0.07-0.279l0.08-0.28l0.09-0.28l0.1-0.279l0.1-0.271l0.12-0.27
							l0.11-0.271l0.13-0.27l0.13-0.261l0.14-0.26l0.3-0.5l0.16-0.25l0.16-0.24l0.17-0.239l0.18-0.23l0.38-0.46l0.19-0.22l0.2-0.21
							l0.21-0.21l0.22-0.21l0.22-0.2l0.22-0.19l0.23-0.189l0.24-0.19l0.24-0.17l0.5-0.34l0.26-0.16l0.26-0.15l0.27-0.14l0.261-0.14
							l0.28-0.13l0.27-0.12l0.561-0.221l0.279-0.09l0.29-0.09l0.28-0.08l0.29-0.069l0.579-0.12l0.291-0.04l0.3-0.04l0.58-0.061
							l0.3-0.01l0.29-0.01h0.29l0.3,0.01L100.354,2.504z M374.624,205.334l-263.94-171.48v342.96L374.624,205.334z"/>
					</g>
				</g>
			</g>
			<g>
				<g>
					<path id="ac6fjddoS_8_" fill="#FFFFFF" d="M314.825,203.124c1.76,0,3.528-0.88,4.629-2.42c1.771-2.65,0.881-5.96-1.539-7.73
						c-18.61-12.09-167.441-108.84-186.042-120.939c-2.649-1.76-5.959-0.88-7.729,1.55c-1.76,2.431-0.88,5.96,1.55,7.721
						c37.2,24.189,167.43,108.849,186.042,120.939C312.614,202.904,313.713,203.124,314.825,203.124z"/>
				</g>
				<g>
					<g>
						<path id="ac6fjddoS_4_" fill="#FFFFFF" fill-opacity="0" d="M314.825,203.124c1.76,0,3.528-0.88,4.629-2.42
							c1.771-2.65,0.881-5.96-1.539-7.73c-18.61-12.09-167.441-108.84-186.042-120.939c-2.649-1.76-5.959-0.88-7.729,1.55
							c-1.76,2.431-0.88,5.96,1.55,7.721c37.2,24.189,167.43,108.849,186.042,120.939
							C312.614,202.904,313.713,203.124,314.825,203.124z"/>
					</g>
				</g>
			</g>
			<g>
				<g>
					<path id="d1g0m9kFN9_8_" fill="#FFFFFF" d="M314.825,203.124c1.76,0,3.528-0.88,4.629-2.42c1.771-2.65,0.881-5.96-1.539-7.73
						c-18.61-12.09-167.441-108.84-186.042-120.939c-2.649-1.76-5.959-0.88-7.729,1.55c-1.76,2.431-0.88,5.96,1.55,7.721
						c37.2,24.189,167.43,108.849,186.042,120.939C312.614,202.904,313.713,203.124,314.825,203.124z"/>
				</g>
				<g>
					<g>
						<path id="d1g0m9kFN9_4_" fill="#FFFFFF" fill-opacity="0" d="M314.825,203.124c1.76,0,3.528-0.88,4.629-2.42
							c1.771-2.65,0.881-5.96-1.539-7.73c-18.61-12.09-167.441-108.84-186.042-120.939c-2.649-1.76-5.959-0.88-7.729,1.55
							c-1.76,2.431-0.88,5.96,1.55,7.721c37.2,24.189,167.43,108.849,186.042,120.939
							C312.614,202.904,313.713,203.124,314.825,203.124z"/>
					</g>
				</g>
			</g>
		</g>
	</g>
</g>
<rect id="square" y="0.301" display="none" fill="none" stroke="#000000" stroke-width="0.3" width="405.663" height="410.33"/>
</svg>
