<?xml version="1.0" encoding="utf-8"?>
<!-- Generator: Adobe Illustrator 16.0.0, SVG Export Plug-In . SVG Version: 6.00 Build 0)  -->
<!DOCTYPE svg PUBLIC "-//W3C//DTD SVG 1.1//EN" "http://www.w3.org/Graphics/SVG/1.1/DTD/svg11.dtd">
<svg version="1.1" id="Layer_1" xmlns="http://www.w3.org/2000/svg" xmlns:xlink="http://www.w3.org/1999/xlink" x="0px" y="0px"
	 width="405.961px" height="410.631px" viewBox="0 0 405.961 410.631" enable-background="new 0 0 405.961 410.631"
	 xml:space="preserve">
<g id="img_white">
	<g>
		<g>
			<g>
				<g>
					<path id="aO9mmp1J_8_" fill="#35BE88" d="M100.352,2.505l0.301,0.03l0.289,0.03l0.291,0.04l0.58,0.1l0.279,0.07l0.29,0.069
						l0.279,0.08l0.29,0.08l0.271,0.101l0.278,0.1l0.28,0.11l0.271,0.109l0.26,0.131l0.27,0.13l0.262,0.14l0.26,0.15l0.25,0.149
						l0.25,0.16l295.289,191.78l0.229,0.147l0.441,0.32l0.219,0.17l0.211,0.181l0.209,0.17l0.201,0.19l0.198,0.188l0.189,0.19
						l0.189,0.199l0.188,0.201l0.182,0.209l0.171,0.211l0.17,0.219l0.159,0.222l0.158,0.219l0.15,0.229l0.149,0.23l0.14,0.238
						l0.131,0.229l0.131,0.25l0.129,0.24l0.109,0.25l0.121,0.25l0.1,0.25l0.103,0.26l0.18,0.521l0.08,0.262l0.069,0.27l0.068,0.271
						l0.063,0.271l0.049,0.271l0.051,0.271l0.039,0.281l0.031,0.271l0.028,0.278l0.021,0.281l0.012,0.277v0.563l-0.012,0.277
						l-0.021,0.28l-0.028,0.278l-0.031,0.271l-0.039,0.279l-0.051,0.271l-0.049,0.27l-0.063,0.271l-0.068,0.271l-0.069,0.271
						l-0.08,0.263l-0.18,0.521l-0.103,0.26l-0.1,0.25l-0.121,0.25l-0.109,0.25l-0.129,0.24l-0.131,0.25l-0.131,0.229l-0.14,0.237
						l-0.149,0.229l-0.15,0.229l-0.158,0.221l-0.159,0.221l-0.17,0.221l-0.171,0.211l-0.182,0.209l-0.188,0.201l-0.189,0.197
						l-0.189,0.191l-0.198,0.188l-0.201,0.189l-0.209,0.171l-0.211,0.181l-0.219,0.17l-0.441,0.319l-0.229,0.147L105.604,406.384
						l-0.26,0.159l-0.142,0.08l-0.13,0.08l-0.141,0.07l-0.141,0.067l-0.13,0.08l-0.14,0.069l-0.141,0.06l-0.141,0.069l-0.141,0.062
						l-0.14,0.069l-0.149,0.062l-0.141,0.062l-0.15,0.05l-0.14,0.063l-0.149,0.049l-0.141,0.051l-0.15,0.05l-0.149,0.041
						l-0.149,0.049l-0.149,0.041l-0.3,0.08l-0.16,0.039l-0.149,0.03l-0.149,0.029l-0.16,0.028l-0.149,0.029l-0.159,0.021
						l-0.16,0.029l-0.16,0.021l-0.16,0.01l-0.16,0.021l-0.159,0.013l-0.159,0.011l-0.16,0.01l-0.17,0.01h-0.73l-0.131-0.01
						l-0.139-0.01l-0.131-0.011l-0.279-0.021l-0.131-0.01l-0.141-0.021l-0.141-0.02l-0.139-0.021l-0.131-0.02l-0.141-0.021
						l-0.141-0.02l-0.14-0.031l-0.131-0.028l-0.14-0.021l-0.141-0.031l-0.141-0.039l-0.131-0.028l-0.139-0.039l-0.131-0.03
						l-0.141-0.039l-0.131-0.041l-0.139-0.05l-0.131-0.041l-0.13-0.049l-0.131-0.041l-0.13-0.049l-0.26-0.103l-0.121-0.062
						l-0.129-0.051l-0.121-0.063l-0.129-0.059l-0.121-0.063l-0.119-0.06l-0.109-0.063l-0.119-0.067l-0.261-0.15l-0.261-0.159
						l-0.5-0.341l-0.239-0.17l-0.239-0.188l-0.23-0.188l-0.221-0.188l-0.219-0.198l-0.221-0.212l-0.211-0.209l-0.199-0.211
						l-0.189-0.222l-0.189-0.229l-0.189-0.23L90.8,403.69l-0.17-0.24l-0.159-0.24l-0.16-0.25l-0.301-0.5l-0.141-0.26l-0.131-0.26
						l-0.129-0.271l-0.11-0.27l-0.119-0.271l-0.101-0.27l-0.101-0.279l-0.09-0.281l-0.08-0.278l-0.069-0.278l-0.07-0.289
						l-0.061-0.281l-0.05-0.288l-0.051-0.291l-0.029-0.3L88.649,398l-0.02-0.299l-0.021-0.291V13.255l0.021-0.29l0.02-0.3l0.03-0.29
						l0.029-0.3l0.101-0.58l0.061-0.28l0.07-0.29l0.069-0.279l0.08-0.28l0.09-0.28l0.101-0.279l0.101-0.271l0.119-0.27l0.11-0.271
						l0.129-0.27l0.131-0.261l0.141-0.26l0.301-0.5l0.16-0.25l0.159-0.24l0.17-0.239l0.181-0.23l0.379-0.46l0.19-0.22l0.199-0.21
						l0.211-0.21l0.22-0.21l0.221-0.2l0.22-0.19l0.229-0.189l0.24-0.19l0.239-0.17l0.5-0.34l0.261-0.16l0.26-0.15l0.271-0.14
						l0.261-0.14l0.279-0.13l0.271-0.12l0.559-0.221l0.281-0.09l0.289-0.09l0.28-0.08l0.29-0.069l0.579-0.12L98,2.606l0.301-0.04
						l0.58-0.061l0.301-0.01l0.289-0.01h0.29l0.3,0.01L100.352,2.505z M374.624,205.336L110.682,33.856v342.96L374.624,205.336z"/>
				</g>
				<g>
					<g>
						<path id="aO9mmp1J_4_" fill="#35BE88" fill-opacity="0" d="M100.352,2.505l0.301,0.03l0.289,0.03l0.291,0.04l0.58,0.1
							l0.279,0.07l0.29,0.069l0.279,0.08l0.29,0.08l0.271,0.101l0.278,0.1l0.28,0.11l0.271,0.109l0.26,0.131l0.27,0.13l0.262,0.14
							l0.26,0.15l0.25,0.149l0.25,0.16l295.289,191.78l0.229,0.147l0.441,0.32l0.219,0.17l0.211,0.181l0.209,0.17l0.201,0.19
							l0.198,0.188l0.189,0.19l0.189,0.199l0.188,0.201l0.182,0.209l0.171,0.211l0.17,0.219l0.159,0.222l0.158,0.219l0.15,0.229
							l0.149,0.23l0.14,0.238l0.131,0.229l0.131,0.25l0.129,0.24l0.109,0.25l0.121,0.25l0.1,0.25l0.103,0.26l0.18,0.521l0.08,0.262
							l0.069,0.27l0.068,0.271l0.063,0.271l0.049,0.271l0.051,0.271l0.039,0.281l0.031,0.271l0.028,0.278l0.021,0.281l0.012,0.277
							v0.563l-0.012,0.277l-0.021,0.28l-0.028,0.278l-0.031,0.271l-0.039,0.279l-0.051,0.271l-0.049,0.27l-0.063,0.271l-0.068,0.271
							l-0.069,0.271l-0.08,0.263l-0.18,0.521l-0.103,0.26l-0.1,0.25l-0.121,0.25l-0.109,0.25l-0.129,0.24l-0.131,0.25l-0.131,0.229
							l-0.14,0.237l-0.149,0.229l-0.15,0.229l-0.158,0.221l-0.159,0.221l-0.17,0.221l-0.171,0.211l-0.182,0.209l-0.188,0.201
							l-0.189,0.197l-0.189,0.191l-0.198,0.188l-0.201,0.189l-0.209,0.171l-0.211,0.181l-0.219,0.17l-0.441,0.319l-0.229,0.147
							L105.604,406.384l-0.26,0.159l-0.142,0.08l-0.13,0.08l-0.141,0.07l-0.141,0.067l-0.13,0.08l-0.14,0.069l-0.141,0.06
							l-0.141,0.069l-0.141,0.062l-0.14,0.069l-0.149,0.062l-0.141,0.062l-0.15,0.05l-0.14,0.063l-0.149,0.049l-0.141,0.051
							l-0.15,0.05l-0.149,0.041l-0.149,0.049l-0.149,0.041l-0.3,0.08l-0.16,0.039l-0.149,0.03l-0.149,0.029l-0.16,0.028
							l-0.149,0.029l-0.159,0.021l-0.16,0.029l-0.16,0.021l-0.16,0.01l-0.16,0.021l-0.159,0.013l-0.159,0.011l-0.16,0.01l-0.17,0.01
							h-0.73l-0.131-0.01l-0.139-0.01l-0.131-0.011l-0.279-0.021l-0.131-0.01l-0.141-0.021l-0.141-0.02l-0.139-0.021l-0.131-0.02
							l-0.141-0.021l-0.141-0.02l-0.14-0.031l-0.131-0.028l-0.14-0.021l-0.141-0.031l-0.141-0.039l-0.131-0.028l-0.139-0.039
							l-0.131-0.03l-0.141-0.039l-0.131-0.041l-0.139-0.05l-0.131-0.041l-0.13-0.049l-0.131-0.041l-0.13-0.049l-0.26-0.103
							l-0.121-0.062l-0.129-0.051l-0.121-0.063l-0.129-0.059l-0.121-0.063l-0.119-0.06l-0.109-0.063l-0.119-0.067l-0.261-0.15
							l-0.261-0.159l-0.5-0.341l-0.239-0.17l-0.239-0.188l-0.23-0.188l-0.221-0.188l-0.219-0.198l-0.221-0.212l-0.211-0.209
							l-0.199-0.211l-0.189-0.222l-0.189-0.229l-0.189-0.23L90.8,403.69l-0.17-0.24l-0.159-0.24l-0.16-0.25l-0.301-0.5l-0.141-0.26
							l-0.131-0.26l-0.129-0.271l-0.11-0.27l-0.119-0.271l-0.101-0.27l-0.101-0.279l-0.09-0.281l-0.08-0.278l-0.069-0.278
							l-0.07-0.289l-0.061-0.281l-0.05-0.288l-0.051-0.291l-0.029-0.3L88.649,398l-0.02-0.299l-0.021-0.291V13.255l0.021-0.29
							l0.02-0.3l0.03-0.29l0.029-0.3l0.101-0.58l0.061-0.28l0.07-0.29l0.069-0.279l0.08-0.28l0.09-0.28l0.101-0.279l0.101-0.271
							l0.119-0.27l0.11-0.271l0.129-0.27l0.131-0.261l0.141-0.26l0.301-0.5l0.16-0.25l0.159-0.24l0.17-0.239l0.181-0.23l0.379-0.46
							l0.19-0.22l0.199-0.21l0.211-0.21l0.22-0.21l0.221-0.2l0.22-0.19l0.229-0.189l0.24-0.19l0.239-0.17l0.5-0.34l0.261-0.16
							l0.26-0.15l0.271-0.14l0.261-0.14l0.279-0.13l0.271-0.12l0.559-0.221l0.281-0.09l0.289-0.09l0.28-0.08l0.29-0.069l0.579-0.12
							L98,2.606l0.301-0.04l0.58-0.061l0.301-0.01l0.289-0.01h0.29l0.3,0.01L100.352,2.505z M374.624,205.336L110.682,33.856v342.96
							L374.624,205.336z"/>
					</g>
				</g>
			</g>
			<g>
				<g>
					<path id="dnrjQHK2H_5_" fill="#35BE88" d="M100.352,2.505l0.301,0.03l0.289,0.03l0.291,0.04l0.58,0.1l0.279,0.07l0.29,0.069
						l0.279,0.08l0.29,0.08l0.271,0.101l0.278,0.1l0.28,0.11l0.271,0.109l0.26,0.131l0.27,0.13l0.262,0.14l0.26,0.15l0.25,0.149
						l0.25,0.16l295.289,191.78l0.229,0.147l0.441,0.32l0.219,0.17l0.211,0.181l0.209,0.17l0.201,0.19l0.198,0.188l0.189,0.19
						l0.189,0.199l0.188,0.201l0.182,0.209l0.171,0.211l0.17,0.219l0.159,0.222l0.158,0.219l0.15,0.229l0.149,0.23l0.14,0.238
						l0.131,0.229l0.131,0.25l0.129,0.24l0.109,0.25l0.121,0.25l0.1,0.25l0.103,0.26l0.18,0.521l0.08,0.262l0.069,0.27l0.068,0.271
						l0.063,0.271l0.049,0.271l0.051,0.271l0.039,0.281l0.031,0.271l0.028,0.278l0.021,0.281l0.012,0.277v0.563l-0.012,0.277
						l-0.021,0.28l-0.028,0.278l-0.031,0.271l-0.039,0.279l-0.051,0.271l-0.049,0.27l-0.063,0.271l-0.068,0.271l-0.069,0.271
						l-0.08,0.263l-0.18,0.521l-0.103,0.26l-0.1,0.25l-0.121,0.25l-0.109,0.25l-0.129,0.24l-0.131,0.25l-0.131,0.229l-0.14,0.237
						l-0.149,0.229l-0.15,0.229l-0.158,0.221l-0.159,0.221l-0.17,0.221l-0.171,0.211l-0.182,0.209l-0.188,0.201l-0.189,0.197
						l-0.189,0.191l-0.198,0.188l-0.201,0.189l-0.209,0.171l-0.211,0.181l-0.219,0.17l-0.441,0.319l-0.229,0.147L105.604,406.384
						l-0.26,0.159l-0.142,0.08l-0.13,0.08l-0.141,0.07l-0.141,0.067l-0.13,0.08l-0.14,0.069l-0.141,0.06l-0.141,0.069l-0.141,0.062
						l-0.14,0.069l-0.149,0.062l-0.141,0.062l-0.15,0.05l-0.14,0.063l-0.149,0.049l-0.141,0.051l-0.15,0.05l-0.149,0.041
						l-0.149,0.049l-0.149,0.041l-0.3,0.08l-0.16,0.039l-0.149,0.03l-0.149,0.029l-0.16,0.028l-0.149,0.029l-0.159,0.021
						l-0.16,0.029l-0.16,0.021l-0.16,0.01l-0.16,0.021l-0.159,0.013l-0.159,0.011l-0.16,0.01l-0.17,0.01h-0.73l-0.131-0.01
						l-0.139-0.01l-0.131-0.011l-0.279-0.021l-0.131-0.01l-0.141-0.021l-0.141-0.02l-0.139-0.021l-0.131-0.02l-0.141-0.021
						l-0.141-0.02l-0.14-0.031l-0.131-0.028l-0.14-0.021l-0.141-0.031l-0.141-0.039l-0.131-0.028l-0.139-0.039l-0.131-0.03
						l-0.141-0.039l-0.131-0.041l-0.139-0.05l-0.131-0.041l-0.13-0.049l-0.131-0.041l-0.13-0.049l-0.26-0.103l-0.121-0.062
						l-0.129-0.051l-0.121-0.063l-0.129-0.059l-0.121-0.063l-0.119-0.06l-0.109-0.063l-0.119-0.067l-0.261-0.15l-0.261-0.159
						l-0.5-0.341l-0.239-0.17l-0.239-0.188l-0.23-0.188l-0.221-0.188l-0.219-0.198l-0.221-0.212l-0.211-0.209l-0.199-0.211
						l-0.189-0.222l-0.189-0.229l-0.189-0.23L90.8,403.69l-0.17-0.24l-0.159-0.24l-0.16-0.25l-0.301-0.5l-0.141-0.26l-0.131-0.26
						l-0.129-0.271l-0.11-0.27l-0.119-0.271l-0.101-0.27l-0.101-0.279l-0.09-0.281l-0.08-0.278l-0.069-0.278l-0.07-0.289
						l-0.061-0.281l-0.05-0.288l-0.051-0.291l-0.029-0.3L88.649,398l-0.02-0.299l-0.021-0.291V13.255l0.021-0.29l0.02-0.3l0.03-0.29
						l0.029-0.3l0.101-0.58l0.061-0.28l0.07-0.29l0.069-0.279l0.08-0.28l0.09-0.28l0.101-0.279l0.101-0.271l0.119-0.27l0.11-0.271
						l0.129-0.27l0.131-0.261l0.141-0.26l0.301-0.5l0.16-0.25l0.159-0.24l0.17-0.239l0.181-0.23l0.379-0.46l0.19-0.22l0.199-0.21
						l0.211-0.21l0.22-0.21l0.221-0.2l0.22-0.19l0.229-0.189l0.24-0.19l0.239-0.17l0.5-0.34l0.261-0.16l0.26-0.15l0.271-0.14
						l0.261-0.14l0.279-0.13l0.271-0.12l0.559-0.221l0.281-0.09l0.289-0.09l0.28-0.08l0.29-0.069l0.579-0.12L98,2.606l0.301-0.04
						l0.58-0.061l0.301-0.01l0.289-0.01h0.29l0.3,0.01L100.352,2.505z M374.624,205.336L110.682,33.856v342.96L374.624,205.336z"/>
				</g>
				<g>
					<g>
						<path id="dnrjQHK2H_2_" fill="#35BE88" fill-opacity="0" d="M100.352,2.505l0.301,0.03l0.289,0.03l0.291,0.04l0.58,0.1
							l0.279,0.07l0.29,0.069l0.279,0.08l0.29,0.08l0.271,0.101l0.278,0.1l0.28,0.11l0.271,0.109l0.26,0.131l0.27,0.13l0.262,0.14
							l0.26,0.15l0.25,0.149l0.25,0.16l295.289,191.78l0.229,0.147l0.441,0.32l0.219,0.17l0.211,0.181l0.209,0.17l0.201,0.19
							l0.198,0.188l0.189,0.19l0.189,0.199l0.188,0.201l0.182,0.209l0.171,0.211l0.17,0.219l0.159,0.222l0.158,0.219l0.15,0.229
							l0.149,0.23l0.14,0.238l0.131,0.229l0.131,0.25l0.129,0.24l0.109,0.25l0.121,0.25l0.1,0.25l0.103,0.26l0.18,0.521l0.08,0.262
							l0.069,0.27l0.068,0.271l0.063,0.271l0.049,0.271l0.051,0.271l0.039,0.281l0.031,0.271l0.028,0.278l0.021,0.281l0.012,0.277
							v0.563l-0.012,0.277l-0.021,0.28l-0.028,0.278l-0.031,0.271l-0.039,0.279l-0.051,0.271l-0.049,0.27l-0.063,0.271l-0.068,0.271
							l-0.069,0.271l-0.08,0.263l-0.18,0.521l-0.103,0.26l-0.1,0.25l-0.121,0.25l-0.109,0.25l-0.129,0.24l-0.131,0.25l-0.131,0.229
							l-0.14,0.237l-0.149,0.229l-0.15,0.229l-0.158,0.221l-0.159,0.221l-0.17,0.221l-0.171,0.211l-0.182,0.209l-0.188,0.201
							l-0.189,0.197l-0.189,0.191l-0.198,0.188l-0.201,0.189l-0.209,0.171l-0.211,0.181l-0.219,0.17l-0.441,0.319l-0.229,0.147
							L105.604,406.384l-0.26,0.159l-0.142,0.08l-0.13,0.08l-0.141,0.07l-0.141,0.067l-0.13,0.08l-0.14,0.069l-0.141,0.06
							l-0.141,0.069l-0.141,0.062l-0.14,0.069l-0.149,0.062l-0.141,0.062l-0.15,0.05l-0.14,0.063l-0.149,0.049l-0.141,0.051
							l-0.15,0.05l-0.149,0.041l-0.149,0.049l-0.149,0.041l-0.3,0.08l-0.16,0.039l-0.149,0.03l-0.149,0.029l-0.16,0.028
							l-0.149,0.029l-0.159,0.021l-0.16,0.029l-0.16,0.021l-0.16,0.01l-0.16,0.021l-0.159,0.013l-0.159,0.011l-0.16,0.01l-0.17,0.01
							h-0.73l-0.131-0.01l-0.139-0.01l-0.131-0.011l-0.279-0.021l-0.131-0.01l-0.141-0.021l-0.141-0.02l-0.139-0.021l-0.131-0.02
							l-0.141-0.021l-0.141-0.02l-0.14-0.031l-0.131-0.028l-0.14-0.021l-0.141-0.031l-0.141-0.039l-0.131-0.028l-0.139-0.039
							l-0.131-0.03l-0.141-0.039l-0.131-0.041l-0.139-0.05l-0.131-0.041l-0.13-0.049l-0.131-0.041l-0.13-0.049l-0.26-0.103
							l-0.121-0.062l-0.129-0.051l-0.121-0.063l-0.129-0.059l-0.121-0.063l-0.119-0.06l-0.109-0.063l-0.119-0.067l-0.261-0.15
							l-0.261-0.159l-0.5-0.341l-0.239-0.17l-0.239-0.188l-0.23-0.188l-0.221-0.188l-0.219-0.198l-0.221-0.212l-0.211-0.209
							l-0.199-0.211l-0.189-0.222l-0.189-0.229l-0.189-0.23L90.8,403.69l-0.17-0.24l-0.159-0.24l-0.16-0.25l-0.301-0.5l-0.141-0.26
							l-0.131-0.26l-0.129-0.271l-0.11-0.27l-0.119-0.271l-0.101-0.27l-0.101-0.279l-0.09-0.281l-0.08-0.278l-0.069-0.278
							l-0.07-0.289l-0.061-0.281l-0.05-0.288l-0.051-0.291l-0.029-0.3L88.649,398l-0.02-0.299l-0.021-0.291V13.255l0.021-0.29
							l0.02-0.3l0.03-0.29l0.029-0.3l0.101-0.58l0.061-0.28l0.07-0.29l0.069-0.279l0.08-0.28l0.09-0.28l0.101-0.279l0.101-0.271
							l0.119-0.27l0.11-0.271l0.129-0.27l0.131-0.261l0.141-0.26l0.301-0.5l0.16-0.25l0.159-0.24l0.17-0.239l0.181-0.23l0.379-0.46
							l0.19-0.22l0.199-0.21l0.211-0.21l0.22-0.21l0.221-0.2l0.22-0.19l0.229-0.189l0.24-0.19l0.239-0.17l0.5-0.34l0.261-0.16
							l0.26-0.15l0.271-0.14l0.261-0.14l0.279-0.13l0.271-0.12l0.559-0.221l0.281-0.09l0.289-0.09l0.28-0.08l0.29-0.069l0.579-0.12
							L98,2.606l0.301-0.04l0.58-0.061l0.301-0.01l0.289-0.01h0.29l0.3,0.01L100.352,2.505z M374.624,205.336L110.682,33.856v342.96
							L374.624,205.336z"/>
					</g>
				</g>
			</g>
			<g>
				<g>
					<path id="ac6fjddoS_8_" fill="#35BE88" d="M314.823,203.127c1.76,0,3.528-0.881,4.629-2.42
						c1.771-2.649,0.881-5.961-1.539-7.729c-18.608-12.091-167.439-108.841-186.04-120.94c-2.649-1.76-5.96-0.88-7.729,1.55
						c-1.76,2.431-0.879,5.96,1.551,7.721c37.199,24.189,167.43,108.85,186.04,120.938
						C312.611,202.906,313.711,203.127,314.823,203.127z"/>
				</g>
				<g>
					<g>
						<path id="ac6fjddoS_4_" fill="#35BE88" fill-opacity="0" d="M314.823,203.127c1.76,0,3.528-0.881,4.629-2.42
							c1.771-2.649,0.881-5.961-1.539-7.729c-18.608-12.091-167.439-108.841-186.04-120.94c-2.649-1.76-5.96-0.88-7.729,1.55
							c-1.76,2.431-0.879,5.96,1.551,7.721c37.199,24.189,167.43,108.85,186.04,120.938
							C312.611,202.906,313.711,203.127,314.823,203.127z"/>
					</g>
				</g>
			</g>
			<g>
				<g>
					<path id="d1g0m9kFN9_8_" fill="#35BE88" d="M314.823,203.127c1.76,0,3.528-0.881,4.629-2.42
						c1.771-2.649,0.881-5.961-1.539-7.729c-18.608-12.091-167.439-108.841-186.04-120.94c-2.649-1.76-5.96-0.88-7.729,1.55
						c-1.76,2.431-0.879,5.96,1.551,7.721c37.199,24.189,167.43,108.85,186.04,120.938
						C312.611,202.906,313.711,203.127,314.823,203.127z"/>
				</g>
				<g>
					<g>
						<path id="d1g0m9kFN9_4_" fill="#35BE88" fill-opacity="0" d="M314.823,203.127c1.76,0,3.528-0.881,4.629-2.42
							c1.771-2.649,0.881-5.961-1.539-7.729c-18.608-12.091-167.439-108.841-186.04-120.94c-2.649-1.76-5.96-0.88-7.729,1.55
							c-1.76,2.431-0.879,5.96,1.551,7.721c37.199,24.189,167.43,108.85,186.04,120.938
							C312.611,202.906,313.711,203.127,314.823,203.127z"/>
					</g>
				</g>
			</g>
		</g>
	</g>
</g>
<rect id="square" y="0.15" display="none" fill="none" stroke="#000000" stroke-width="0.3" width="405.661" height="410.333"/>
</svg>
