<?xml version="1.0" encoding="UTF-8" standalone="no"?>
<!DOCTYPE svg PUBLIC "-//W3C//DTD SVG 1.1//EN" "http://www.w3.org/Graphics/SVG/1.1/DTD/svg11.dtd">
<svg version="1.1" xmlns="http://www.w3.org/2000/svg" xmlns:xlink="http://www.w3.org/1999/xlink" preserveAspectRatio="xMidYMid meet" viewBox="0 0 640 640" width="640" height="640"><defs><path d="M210.36 117.17L210.66 117.2L210.95 117.23L211.24 117.27L211.82 117.37L212.1 117.44L212.39 117.51L212.67 117.59L212.96 117.67L213.23 117.77L213.51 117.87L213.79 117.98L214.06 118.09L214.32 118.22L214.59 118.35L214.85 118.49L215.11 118.64L215.36 118.79L215.61 118.95L510.9 310.73L511.13 310.88L511.57 311.2L511.79 311.37L512 311.55L512.21 311.72L512.41 311.91L512.61 312.1L512.8 312.29L512.99 312.49L513.18 312.69L513.36 312.9L513.53 313.11L513.7 313.33L513.86 313.55L514.02 313.77L514.17 314L514.32 314.23L514.46 314.47L514.59 314.7L514.72 314.95L514.85 315.19L514.96 315.44L515.08 315.69L515.18 315.94L515.28 316.2L515.46 316.72L515.54 316.98L515.61 317.25L515.68 317.52L515.74 317.79L515.79 318.06L515.84 318.33L515.88 318.61L515.91 318.88L515.94 319.16L515.96 319.44L515.97 319.72L515.97 320.28L515.96 320.56L515.94 320.84L515.91 321.12L515.88 321.39L515.84 321.67L515.79 321.94L515.74 322.21L515.68 322.48L515.61 322.75L515.54 323.02L515.46 323.28L515.28 323.8L515.18 324.06L515.08 324.31L514.96 324.56L514.85 324.81L514.72 325.05L514.59 325.3L514.46 325.53L514.32 325.77L514.17 326L514.02 326.23L513.86 326.45L513.7 326.67L513.53 326.89L513.36 327.1L513.18 327.31L512.99 327.51L512.8 327.71L512.61 327.9L512.41 328.09L512.21 328.28L512 328.45L511.79 328.63L511.57 328.8L511.13 329.12L510.9 329.27L215.61 521.05L215.35 521.21L215.21 521.29L215.08 521.37L214.94 521.44L214.8 521.51L214.67 521.59L214.53 521.66L214.39 521.72L214.25 521.79L214.11 521.85L213.97 521.92L213.82 521.98L213.68 522.04L213.53 522.09L213.39 522.15L213.24 522.2L213.1 522.25L212.95 522.3L212.8 522.34L212.65 522.39L212.5 522.43L212.2 522.51L212.04 522.55L211.89 522.58L211.74 522.61L211.58 522.64L211.43 522.67L211.27 522.69L211.11 522.72L210.95 522.74L210.79 522.75L210.63 522.77L210.47 522.78L210.31 522.79L210.15 522.8L209.98 522.81L209.25 522.81L209.12 522.8L208.98 522.79L208.85 522.78L208.57 522.76L208.44 522.75L208.3 522.73L208.16 522.71L208.02 522.69L207.89 522.67L207.75 522.65L207.61 522.63L207.47 522.6L207.34 522.57L207.2 522.55L207.06 522.52L206.92 522.48L206.79 522.45L206.65 522.41L206.52 522.38L206.38 522.34L206.25 522.3L206.11 522.25L205.98 522.21L205.85 522.16L205.72 522.12L205.59 522.07L205.33 521.97L205.21 521.91L205.08 521.86L204.96 521.8L204.83 521.74L204.71 521.68L204.59 521.62L204.48 521.56L204.36 521.49L204.1 521.34L203.84 521.18L203.34 520.84L203.1 520.67L202.86 520.48L202.63 520.29L202.41 520.1L202.19 519.9L201.97 519.69L201.76 519.48L201.56 519.27L201.37 519.05L201.18 518.82L200.99 518.59L200.81 518.36L200.64 518.12L200.48 517.88L200.32 517.63L200.02 517.13L199.88 516.87L199.75 516.61L199.62 516.34L199.51 516.07L199.39 515.8L199.29 515.53L199.19 515.25L199.1 514.97L199.02 514.69L198.95 514.41L198.88 514.12L198.82 513.84L198.77 513.55L198.72 513.26L198.69 512.96L198.66 512.67L198.64 512.37L198.62 512.08L198.62 127.92L198.64 127.63L198.66 127.33L198.69 127.04L198.72 126.74L198.82 126.16L198.88 125.88L198.95 125.59L199.02 125.31L199.1 125.03L199.19 124.75L199.29 124.47L199.39 124.2L199.51 123.93L199.62 123.66L199.75 123.39L199.88 123.13L200.02 122.87L200.32 122.37L200.48 122.12L200.64 121.88L200.81 121.64L200.99 121.41L201.37 120.95L201.56 120.73L201.76 120.52L201.97 120.31L202.19 120.1L202.41 119.9L202.63 119.71L202.86 119.52L203.1 119.33L203.34 119.16L203.84 118.82L204.1 118.66L204.36 118.51L204.63 118.37L204.89 118.23L205.17 118.1L205.44 117.98L206 117.76L206.28 117.67L206.57 117.58L206.85 117.5L207.14 117.43L207.72 117.31L208.01 117.27L208.31 117.23L208.89 117.17L209.19 117.16L209.48 117.15L209.77 117.15L210.07 117.16L210.36 117.17ZM484.63 320L220.69 148.52L220.69 491.48L484.63 320Z" id="aO9mmp1J"></path><path d="M210.36 117.17L210.66 117.2L210.95 117.23L211.24 117.27L211.82 117.37L212.1 117.44L212.39 117.51L212.67 117.59L212.96 117.67L213.23 117.77L213.51 117.87L213.79 117.98L214.06 118.09L214.32 118.22L214.59 118.35L214.85 118.49L215.11 118.64L215.36 118.79L215.61 118.95L510.9 310.73L511.13 310.88L511.57 311.2L511.79 311.37L512 311.55L512.21 311.72L512.41 311.91L512.61 312.1L512.8 312.29L512.99 312.49L513.18 312.69L513.36 312.9L513.53 313.11L513.7 313.33L513.86 313.55L514.02 313.77L514.17 314L514.32 314.23L514.46 314.47L514.59 314.7L514.72 314.95L514.85 315.19L514.96 315.44L515.08 315.69L515.18 315.94L515.28 316.2L515.46 316.72L515.54 316.98L515.61 317.25L515.68 317.52L515.74 317.79L515.79 318.06L515.84 318.33L515.88 318.61L515.91 318.88L515.94 319.16L515.96 319.44L515.97 319.72L515.97 320.28L515.96 320.56L515.94 320.84L515.91 321.12L515.88 321.39L515.84 321.67L515.79 321.94L515.74 322.21L515.68 322.48L515.61 322.75L515.54 323.02L515.46 323.28L515.28 323.8L515.18 324.06L515.08 324.31L514.96 324.56L514.85 324.81L514.72 325.05L514.59 325.3L514.46 325.53L514.32 325.77L514.17 326L514.02 326.23L513.86 326.45L513.7 326.67L513.53 326.89L513.36 327.1L513.18 327.31L512.99 327.51L512.8 327.71L512.61 327.9L512.41 328.09L512.21 328.28L512 328.45L511.79 328.63L511.57 328.8L511.13 329.12L510.9 329.27L215.61 521.05L215.35 521.21L215.21 521.29L215.08 521.37L214.94 521.44L214.8 521.51L214.67 521.59L214.53 521.66L214.39 521.72L214.25 521.79L214.11 521.85L213.97 521.92L213.82 521.98L213.68 522.04L213.53 522.09L213.39 522.15L213.24 522.2L213.1 522.25L212.95 522.3L212.8 522.34L212.65 522.39L212.5 522.43L212.2 522.51L212.04 522.55L211.89 522.58L211.74 522.61L211.58 522.64L211.43 522.67L211.27 522.69L211.11 522.72L210.95 522.74L210.79 522.75L210.63 522.77L210.47 522.78L210.31 522.79L210.15 522.8L209.98 522.81L209.25 522.81L209.12 522.8L208.98 522.79L208.85 522.78L208.57 522.76L208.44 522.75L208.3 522.73L208.16 522.71L208.02 522.69L207.89 522.67L207.75 522.65L207.61 522.63L207.47 522.6L207.34 522.57L207.2 522.55L207.06 522.52L206.92 522.48L206.79 522.45L206.65 522.41L206.52 522.38L206.38 522.34L206.25 522.3L206.11 522.25L205.98 522.21L205.85 522.16L205.72 522.12L205.59 522.07L205.33 521.97L205.21 521.91L205.08 521.86L204.96 521.8L204.83 521.74L204.71 521.68L204.59 521.62L204.48 521.56L204.36 521.49L204.1 521.34L203.84 521.18L203.34 520.84L203.1 520.67L202.86 520.48L202.63 520.29L202.41 520.1L202.19 519.9L201.97 519.69L201.76 519.48L201.56 519.27L201.37 519.05L201.18 518.82L200.99 518.59L200.81 518.36L200.64 518.12L200.48 517.88L200.32 517.63L200.02 517.13L199.88 516.87L199.75 516.61L199.62 516.34L199.51 516.07L199.39 515.8L199.29 515.53L199.19 515.25L199.1 514.97L199.02 514.69L198.95 514.41L198.88 514.12L198.82 513.84L198.77 513.55L198.72 513.26L198.69 512.96L198.66 512.67L198.64 512.37L198.62 512.08L198.62 127.92L198.64 127.63L198.66 127.33L198.69 127.04L198.72 126.74L198.82 126.16L198.88 125.88L198.95 125.59L199.02 125.31L199.1 125.03L199.19 124.75L199.29 124.47L199.39 124.2L199.51 123.93L199.62 123.66L199.75 123.39L199.88 123.13L200.02 122.87L200.32 122.37L200.48 122.12L200.64 121.88L200.81 121.64L200.99 121.41L201.37 120.95L201.56 120.73L201.76 120.52L201.97 120.31L202.19 120.1L202.41 119.9L202.63 119.71L202.86 119.52L203.1 119.33L203.34 119.16L203.84 118.82L204.1 118.66L204.36 118.51L204.63 118.37L204.89 118.23L205.17 118.1L205.44 117.98L206 117.76L206.28 117.67L206.57 117.58L206.85 117.5L207.14 117.43L207.72 117.31L208.01 117.27L208.31 117.23L208.89 117.17L209.19 117.16L209.48 117.15L209.77 117.15L210.07 117.16L210.36 117.17ZM484.63 320L220.69 148.52L220.69 491.48L484.63 320Z" id="dnrjQHK2H"></path><path d="M424.83 317.79C426.59 317.79 428.36 316.91 429.46 315.37C431.23 312.72 430.34 309.41 427.92 307.64C409.31 295.55 260.48 198.8 241.88 186.7C239.23 184.94 235.92 185.82 234.15 188.25C232.39 190.68 233.27 194.21 235.7 195.97C272.9 220.16 403.13 304.82 421.74 316.91C422.62 317.57 423.72 317.79 424.83 317.79Z" id="ac6fjddoS"></path><path d="M424.83 317.79C426.59 317.79 428.36 316.91 429.46 315.37C431.23 312.72 430.34 309.41 427.92 307.64C409.31 295.55 260.48 198.8 241.88 186.7C239.23 184.94 235.92 185.82 234.15 188.25C232.39 190.68 233.27 194.21 235.7 195.97C272.9 220.16 403.13 304.82 421.74 316.91C422.62 317.57 423.72 317.79 424.83 317.79Z" id="d1g0m9kFN9"></path><path d="M346.22 1.06L359.12 2.37L371.86 4.19L384.44 6.51L396.84 9.31L409.06 12.59L421.08 16.33L432.89 20.53L444.48 25.17L455.85 30.25L466.98 35.75L477.86 41.67L488.48 47.99L498.84 54.7L508.91 61.79L518.69 69.26L528.18 77.09L537.35 85.27L546.21 93.79L554.73 102.65L562.91 111.82L570.74 121.31L578.21 131.09L585.3 141.16L592.01 151.52L598.33 162.14L604.25 173.02L609.75 184.15L614.83 195.52L619.47 207.11L623.67 218.92L627.41 230.94L630.69 243.16L633.49 255.56L635.81 268.14L637.63 280.88L638.94 293.78L639.73 306.82L640 320L639.73 333.18L638.94 346.22L637.63 359.12L635.81 371.86L633.49 384.44L630.69 396.84L627.41 409.06L623.67 421.08L619.47 432.89L614.83 444.48L609.75 455.85L604.25 466.98L598.33 477.86L592.01 488.48L585.3 498.84L578.21 508.91L570.74 518.69L562.91 528.18L554.73 537.35L546.21 546.21L537.35 554.73L528.18 562.91L518.69 570.74L508.91 578.21L498.84 585.3L488.48 592.01L477.86 598.33L466.98 604.25L455.85 609.75L444.48 614.83L432.89 619.47L421.08 623.67L409.06 627.41L396.84 630.69L384.44 633.49L371.86 635.81L359.12 637.63L346.22 638.94L333.18 639.73L320 640L306.82 639.73L293.78 638.94L280.88 637.63L268.14 635.81L255.56 633.49L243.16 630.69L230.94 627.41L218.92 623.67L207.11 619.47L195.52 614.83L184.15 609.75L173.02 604.25L162.14 598.33L151.52 592.01L141.16 585.3L131.09 578.21L121.31 570.74L111.82 562.91L102.65 554.73L93.79 546.21L85.27 537.35L77.09 528.18L69.26 518.69L61.79 508.91L54.7 498.84L47.99 488.48L41.67 477.86L35.75 466.98L30.25 455.85L25.17 444.48L20.53 432.89L16.33 421.08L12.59 409.06L9.31 396.84L6.51 384.44L4.19 371.86L2.37 359.12L1.06 346.22L0.27 333.18L0 320L0.27 306.82L1.06 293.78L2.37 280.88L4.19 268.14L6.51 255.56L9.31 243.16L12.59 230.94L16.33 218.92L20.53 207.11L25.17 195.52L30.25 184.15L35.75 173.02L41.67 162.14L47.99 151.52L54.7 141.16L61.79 131.09L69.26 121.31L77.09 111.82L85.27 102.65L93.79 93.79L102.65 85.27L111.82 77.09L121.31 69.26L131.09 61.79L141.16 54.7L151.52 47.99L162.14 41.67L173.02 35.75L184.15 30.25L195.52 25.17L207.11 20.53L218.92 16.33L230.94 12.59L243.16 9.31L255.56 6.51L268.14 4.19L280.88 2.37L293.78 1.06L306.82 0.27L320 0L333.18 0.27L346.22 1.06ZM295.61 23.06L283.61 24.28L271.76 25.98L260.06 28.14L248.52 30.75L237.15 33.8L225.97 37.29L214.97 41.2L204.18 45.53L193.6 50.26L183.24 55.39L173.11 60.9L163.22 66.79L153.58 73.04L144.2 79.65L135.09 86.61L126.25 93.9L117.71 101.52L109.46 109.46L101.52 117.71L93.9 126.25L86.61 135.09L79.65 144.2L73.04 153.58L66.79 163.22L60.9 173.11L55.39 183.24L50.26 193.6L45.53 204.18L41.2 214.97L37.29 225.97L33.8 237.15L30.75 248.52L28.14 260.06L25.98 271.76L24.28 283.61L23.06 295.61L22.32 307.74L22.07 320L22.32 332.26L23.06 344.39L24.28 356.39L25.98 368.24L28.14 379.94L30.75 391.48L33.8 402.85L37.29 414.03L41.2 425.03L45.53 435.82L50.26 446.4L55.39 456.76L60.9 466.89L66.79 476.78L73.04 486.42L79.65 495.8L86.61 504.91L93.9 513.75L101.52 522.29L109.46 530.54L117.71 538.48L126.25 546.1L135.09 553.39L144.2 560.35L153.58 566.96L163.22 573.21L173.11 579.1L183.24 584.61L193.6 589.74L204.18 594.47L214.97 598.8L225.97 602.71L237.15 606.2L248.52 609.25L260.06 611.86L271.76 614.02L283.61 615.72L295.61 616.94L307.74 617.68L320 617.93L332.26 617.68L344.39 616.94L356.39 615.72L368.24 614.02L379.94 611.86L391.48 609.25L402.85 606.2L414.03 602.71L425.03 598.8L435.82 594.47L446.4 589.74L456.76 584.61L466.89 579.1L476.78 573.21L486.42 566.96L495.8 560.35L504.91 553.39L513.75 546.1L522.29 538.48L530.54 530.54L538.48 522.29L546.1 513.75L553.39 504.91L560.35 495.8L566.96 486.42L573.21 476.78L579.1 466.89L584.61 456.76L589.74 446.4L594.47 435.82L598.8 425.03L602.71 414.03L606.2 402.85L609.25 391.48L611.86 379.94L614.02 368.24L615.72 356.39L616.94 344.39L617.68 332.26L617.93 320L617.68 307.74L616.94 295.61L615.72 283.61L614.02 271.76L611.86 260.06L609.25 248.52L606.2 237.15L602.71 225.97L598.8 214.97L594.47 204.18L589.74 193.6L584.61 183.24L579.1 173.11L573.21 163.22L566.96 153.58L560.35 144.2L553.39 135.09L546.1 126.25L538.48 117.71L530.54 109.46L522.29 101.52L513.75 93.9L504.91 86.61L495.8 79.65L486.42 73.04L476.78 66.79L466.89 60.9L456.76 55.39L446.4 50.26L435.82 45.53L425.03 41.2L414.03 37.29L402.85 33.8L391.48 30.75L379.94 28.14L368.24 25.98L356.39 24.28L344.39 23.06L332.26 22.32L320 22.07L307.74 22.32L295.61 23.06Z" id="azzuKy19v"></path><path d="M346.22 1.06L359.12 2.37L371.86 4.19L384.44 6.51L396.84 9.31L409.06 12.59L421.08 16.33L432.89 20.53L444.48 25.17L455.85 30.25L466.98 35.75L477.86 41.67L488.48 47.99L498.84 54.7L508.91 61.79L518.69 69.26L528.18 77.09L537.35 85.27L546.21 93.79L554.73 102.65L562.91 111.82L570.74 121.31L578.21 131.09L585.3 141.16L592.01 151.52L598.33 162.14L604.25 173.02L609.75 184.15L614.83 195.52L619.47 207.11L623.67 218.92L627.41 230.94L630.69 243.16L633.49 255.56L635.81 268.14L637.63 280.88L638.94 293.78L639.73 306.82L640 320L639.73 333.18L638.94 346.22L637.63 359.12L635.81 371.86L633.49 384.44L630.69 396.84L627.41 409.06L623.67 421.08L619.47 432.89L614.83 444.48L609.75 455.85L604.25 466.98L598.33 477.86L592.01 488.48L585.3 498.84L578.21 508.91L570.74 518.69L562.91 528.18L554.73 537.35L546.21 546.21L537.35 554.73L528.18 562.91L518.69 570.74L508.91 578.21L498.84 585.3L488.48 592.01L477.86 598.33L466.98 604.25L455.85 609.75L444.48 614.83L432.89 619.47L421.08 623.67L409.06 627.41L396.84 630.69L384.44 633.49L371.86 635.81L359.12 637.63L346.22 638.94L333.18 639.73L320 640L306.82 639.73L293.78 638.94L280.88 637.63L268.14 635.81L255.56 633.49L243.16 630.69L230.94 627.41L218.92 623.67L207.11 619.47L195.52 614.83L184.15 609.75L173.02 604.25L162.14 598.33L151.52 592.01L141.16 585.3L131.09 578.21L121.31 570.74L111.82 562.91L102.65 554.73L93.79 546.21L85.27 537.35L77.09 528.18L69.26 518.69L61.79 508.91L54.7 498.84L47.99 488.48L41.67 477.86L35.75 466.98L30.25 455.85L25.17 444.48L20.53 432.89L16.33 421.08L12.59 409.06L9.31 396.84L6.51 384.44L4.19 371.86L2.37 359.12L1.06 346.22L0.27 333.18L0 320L0.27 306.82L1.06 293.78L2.37 280.88L4.19 268.14L6.51 255.56L9.31 243.16L12.59 230.94L16.33 218.92L20.53 207.11L25.17 195.52L30.25 184.15L35.75 173.02L41.67 162.14L47.99 151.52L54.7 141.16L61.79 131.09L69.26 121.31L77.09 111.82L85.27 102.65L93.79 93.79L102.65 85.27L111.82 77.09L121.31 69.26L131.09 61.79L141.16 54.7L151.52 47.99L162.14 41.67L173.02 35.75L184.15 30.25L195.52 25.17L207.11 20.53L218.92 16.33L230.94 12.59L243.16 9.31L255.56 6.51L268.14 4.19L280.88 2.37L293.78 1.06L306.82 0.27L320 0L333.18 0.27L346.22 1.06ZM295.61 23.06L283.61 24.28L271.76 25.98L260.06 28.14L248.52 30.75L237.15 33.8L225.97 37.29L214.97 41.2L204.18 45.53L193.6 50.26L183.24 55.39L173.11 60.9L163.22 66.79L153.58 73.04L144.2 79.65L135.09 86.61L126.25 93.9L117.71 101.52L109.46 109.46L101.52 117.71L93.9 126.25L86.61 135.09L79.65 144.2L73.04 153.58L66.79 163.22L60.9 173.11L55.39 183.24L50.26 193.6L45.53 204.18L41.2 214.97L37.29 225.97L33.8 237.15L30.75 248.52L28.14 260.06L25.98 271.76L24.28 283.61L23.06 295.61L22.32 307.74L22.07 320L22.32 332.26L23.06 344.39L24.28 356.39L25.98 368.24L28.14 379.94L30.75 391.48L33.8 402.85L37.29 414.03L41.2 425.03L45.53 435.82L50.26 446.4L55.39 456.76L60.9 466.89L66.79 476.78L73.04 486.42L79.65 495.8L86.61 504.91L93.9 513.75L101.52 522.29L109.46 530.54L117.71 538.48L126.25 546.1L135.09 553.39L144.2 560.35L153.58 566.96L163.22 573.21L173.11 579.1L183.24 584.61L193.6 589.74L204.18 594.47L214.97 598.8L225.97 602.71L237.15 606.2L248.52 609.25L260.06 611.86L271.76 614.02L283.61 615.72L295.61 616.94L307.74 617.68L320 617.93L332.26 617.68L344.39 616.94L356.39 615.72L368.24 614.02L379.94 611.86L391.48 609.25L402.85 606.2L414.03 602.71L425.03 598.8L435.82 594.47L446.4 589.74L456.76 584.61L466.89 579.1L476.78 573.21L486.42 566.96L495.8 560.35L504.91 553.39L513.75 546.1L522.29 538.48L530.54 530.54L538.48 522.29L546.1 513.75L553.39 504.91L560.35 495.8L566.96 486.42L573.21 476.78L579.1 466.89L584.61 456.76L589.74 446.4L594.47 435.82L598.8 425.03L602.71 414.03L606.2 402.85L609.25 391.48L611.86 379.94L614.02 368.24L615.72 356.39L616.94 344.39L617.68 332.26L617.93 320L617.68 307.74L616.94 295.61L615.72 283.61L614.02 271.76L611.86 260.06L609.25 248.52L606.2 237.15L602.71 225.97L598.8 214.97L594.47 204.18L589.74 193.6L584.61 183.24L579.1 173.11L573.21 163.22L566.96 153.58L560.35 144.2L553.39 135.09L546.1 126.25L538.48 117.71L530.54 109.46L522.29 101.52L513.75 93.9L504.91 86.61L495.8 79.65L486.42 73.04L476.78 66.79L466.89 60.9L456.76 55.39L446.4 50.26L435.82 45.53L425.03 41.2L414.03 37.29L402.85 33.8L391.48 30.75L379.94 28.14L368.24 25.98L356.39 24.28L344.39 23.06L332.26 22.32L320 22.07L307.74 22.32L295.61 23.06Z" id="b12qSMM6Dt"></path></defs><g><g><g><use xlink:href="#aO9mmp1J" opacity="1" fill="#345b75" fill-opacity="1"></use><g><use xlink:href="#aO9mmp1J" opacity="1" fill-opacity="0" stroke="#000000" stroke-width="1" stroke-opacity="0"></use></g></g><g><use xlink:href="#dnrjQHK2H" opacity="1" fill="#345b75" fill-opacity="1"></use><g><use xlink:href="#dnrjQHK2H" opacity="1" fill-opacity="0" stroke="#000000" stroke-width="1" stroke-opacity="0"></use></g></g><g><use xlink:href="#ac6fjddoS" opacity="1" fill="#345b75" fill-opacity="1"></use><g><use xlink:href="#ac6fjddoS" opacity="1" fill-opacity="0" stroke="#000000" stroke-width="1" stroke-opacity="0"></use></g></g><g><use xlink:href="#d1g0m9kFN9" opacity="1" fill="#345b75" fill-opacity="1"></use><g><use xlink:href="#d1g0m9kFN9" opacity="1" fill-opacity="0" stroke="#000000" stroke-width="1" stroke-opacity="0"></use></g></g><g><use xlink:href="#azzuKy19v" opacity="1" fill="#345b75" fill-opacity="1"></use><g><use xlink:href="#azzuKy19v" opacity="1" fill-opacity="0" stroke="#000000" stroke-width="1" stroke-opacity="0"></use></g></g><g><use xlink:href="#b12qSMM6Dt" opacity="1" fill="#345b75" fill-opacity="1"></use><g><use xlink:href="#b12qSMM6Dt" opacity="1" fill-opacity="0" stroke="#000000" stroke-width="1" stroke-opacity="0"></use></g></g></g></g></svg>